<svg width="266" height="221" viewBox="0 0 266 221" fill="none" xmlns="http://www.w3.org/2000/svg">
<path d="M132.588 171.328L133.588 45.3277" stroke="black" stroke-width="4"/>
<path d="M111.588 172.328H154.088" stroke="black" stroke-width="4"/>
<path d="M152.588 172.328L236.088 168.328" stroke="black" stroke-width="4"/>
<path d="M112.088 172.328L28.5884 168.328" stroke="black" stroke-width="4"/>
<path d="M133.088 171.828C207.888 157.028 229.588 160.328 231.088 163.828" stroke="black" stroke-width="4"/>
<path d="M132.588 169.111C204.188 149.911 225.422 153.444 227.088 157.611" stroke="black" stroke-width="4"/>
<path d="M132.588 172.328C54.1884 161.928 33.9217 163.661 33.5884 165.828" stroke="black" stroke-width="4"/>
<path d="M133.088 170.828C54.6884 160.028 34.4217 159.994 34.0884 161.328" stroke="black" stroke-width="4"/>
<path d="M132.588 47.3277C202.037 28.3437 222.858 34.259 224.588 39.5897" stroke="black" stroke-width="4"/>
<path d="M224.088 39.3277L226.088 156.828" stroke="black" stroke-width="4"/>
<path d="M230.088 162.828L227.588 42.8277L224.588 38.8277" stroke="black" stroke-width="4"/>
<path d="M234.588 168.828L231.088 38.3277L224.088 39.8277" stroke="black" stroke-width="4"/>
<path d="M133.088 46.8277C62.6884 36.0277 43.755 40.3277 43.0884 43.8277L34.0884 164.828" stroke="black" stroke-width="4"/>
<path d="M30.5884 168.828L40.0884 40.3277L45.5884 41.8277" stroke="black" stroke-width="4"/>
<path d="M146.588 61.3277L172.088 56.3277M145.588 75.3277L183.588 68.3277M192.088 66.8277C199.088 65.3277 213.088 62.9277 213.088 65.3277M146.588 92.8277L181.088 86.8277L203.088 83.3277C206.422 82.6611 213.088 81.7277 213.088 83.3277M146.588 102.828L163.088 99.8277M171.088 98.8277C185.088 95.9944 213.088 90.8277 213.088 92.8277M146.588 116.828L177.588 111.828M146.588 131.328L172.088 127.328M179.588 125.828L201.088 122.328M208.088 120.828C210.588 120.328 215.788 119.628 216.588 120.828" stroke="black" stroke-width="2"/>
<path d="M81.5884 145.328L85.1824 112.328M87.0884 94.8277L85.1824 112.328M87.0884 94.8277C78.9217 94.6611 64.1884 89.3277 70.5884 69.3277C71.8959 69.6053 73.4554 70.1271 75.0884 70.9345M87.0884 94.8277C94.9217 96.3277 110.788 93.3277 111.588 69.3277C110.725 69.4931 109.71 69.7262 108.588 70.0295M87.0884 94.8277C87.554 90.5523 87.1567 86.9092 86.2003 83.8277M85.1824 112.328C79.9844 106.994 68.4884 98.4277 64.0884 106.828C67.9844 110.494 77.6577 116.728 85.1824 112.328ZM85.1824 112.328C92.4844 108.328 107.088 102.428 107.088 110.828C100.151 114.161 86.0577 119.128 85.1824 112.328ZM86.2003 83.8277C84.921 79.7062 82.6414 76.5894 80.0884 74.3083M86.2003 83.8277C91.0833 76.2753 101.798 71.8655 108.588 70.0295M80.0884 74.3083C81.6327 71.2251 85.0455 65.7577 87.9958 64.8277M80.0884 74.3083C78.4699 72.8622 76.7415 71.752 75.0884 70.9345M98.5884 72.3277C95.7884 66.3277 91.4217 64.8277 89.5884 64.8277C89.0839 64.6386 88.5479 64.6537 87.9958 64.8277M108.588 70.0295C107.588 64.9622 104.488 54.5277 100.088 53.3277C95.9844 53.9944 87.2577 56.4277 85.1824 60.8277M87.9958 64.8277C85.5266 61.3277 79.6884 54.8277 76.0884 56.8277C73.6884 59.6277 74.4217 67.3989 75.0884 70.9345" stroke="black" stroke-width="2"/>
<path d="M45.8684 182.688C47.655 182.688 48.9217 182.968 49.6684 183.528C50.4417 184.061 50.8284 184.794 50.8284 185.728C50.8284 186.821 50.3084 187.621 49.2684 188.128C48.255 188.634 46.6817 188.888 44.5484 188.888C43.6684 188.888 42.6684 188.874 41.5484 188.848C40.4284 188.794 39.2817 188.728 38.1084 188.648L38.5084 187.888C38.695 188.821 38.775 189.968 38.7484 191.328C38.7217 192.661 38.5884 193.941 38.3484 195.168L37.9484 194.568C41.0417 194.781 43.4817 195.141 45.2684 195.648C47.055 196.154 48.3217 196.754 49.0684 197.448C49.8417 198.141 50.2284 198.914 50.2284 199.768C50.2284 200.434 50.0017 200.994 49.5484 201.448C49.095 201.874 48.4017 202.088 47.4684 202.088C46.135 202.088 44.5884 201.768 42.8284 201.128C41.095 200.461 39.295 199.514 37.4284 198.288L38.3084 198.208C38.5484 198.901 38.775 199.834 38.9884 201.008C39.2284 202.154 39.415 203.381 39.5484 204.688C39.7084 205.968 39.7884 207.154 39.7884 208.248C39.7884 209.661 39.5217 210.701 38.9884 211.368C38.4817 212.034 37.775 212.368 36.8684 212.368C36.2284 212.368 35.695 212.194 35.2684 211.848C34.8417 211.528 34.5084 211.034 34.2684 210.368C33.975 209.461 33.7217 208.088 33.5084 206.248C33.3217 204.408 33.2284 202.194 33.2284 199.608C33.2284 195.794 33.4417 192.768 33.8684 190.528C34.295 188.261 34.8417 186.661 35.5084 185.728C36.0684 184.981 36.895 184.394 37.9884 183.968C39.0817 183.514 40.3217 183.194 41.7084 183.008C43.095 182.794 44.4817 182.688 45.8684 182.688ZM58.4812 211.408C57.6545 211.408 57.0012 211.221 56.5212 210.848C56.0412 210.448 55.6545 209.794 55.3612 208.888C54.9612 207.554 54.6545 205.874 54.4412 203.848C54.2545 201.794 54.1612 199.274 54.1612 196.288C54.1612 194.448 54.2279 192.608 54.3612 190.768C54.5212 188.901 54.7212 187.208 54.9612 185.688C55.2012 184.141 55.4545 182.941 55.7212 182.088C56.0145 181.181 56.3612 180.554 56.7612 180.208C57.1612 179.861 57.6145 179.688 58.1212 179.688C58.6545 179.688 59.0812 179.874 59.4012 180.248C59.7212 180.594 59.9745 181.221 60.1612 182.128C60.3212 183.008 60.4412 184.088 60.5212 185.368C60.6279 186.648 60.6812 188.021 60.6812 189.488C60.6812 191.488 60.5879 193.594 60.4012 195.808C60.2145 198.021 59.9612 200.194 59.6412 202.328C59.3479 204.461 58.9879 206.421 58.5612 208.208L57.4412 207.648C58.1345 206.794 58.9212 206.128 59.8012 205.648C60.7079 205.168 61.5345 204.928 62.2812 204.928C62.8945 204.928 63.3612 205.101 63.6812 205.448C64.0279 205.768 64.2012 206.274 64.2012 206.968C64.2012 207.661 63.8945 208.354 63.2812 209.048C62.6945 209.741 61.9612 210.314 61.0812 210.768C60.2012 211.194 59.3345 211.408 58.4812 211.408ZM77.5531 211.448C75.4197 211.448 73.5531 210.981 71.9531 210.048C70.3797 209.088 69.1531 207.728 68.2731 205.968C67.4197 204.208 66.9931 202.114 66.9931 199.688C66.9931 197.154 67.4331 194.941 68.3131 193.048C69.1931 191.154 70.4331 189.674 72.0331 188.608C73.6597 187.541 75.5397 187.008 77.6731 187.008C79.9664 187.008 81.9531 187.528 83.6331 188.568C85.3131 189.581 86.6197 191.008 87.5531 192.848C88.4864 194.688 88.9531 196.834 88.9531 199.288C88.9531 201.794 88.4864 203.954 87.5531 205.768C86.6197 207.581 85.2997 208.981 83.5931 209.968C81.8864 210.954 79.8731 211.448 77.5531 211.448ZM78.1131 206.048C79.7664 206.048 81.0731 205.394 82.0331 204.088C83.0197 202.754 83.5131 200.994 83.5131 198.808C83.5131 196.594 83.0197 194.834 82.0331 193.528C81.0731 192.221 79.7664 191.568 78.1131 191.568C76.4064 191.568 75.0597 192.221 74.0731 193.528C73.0864 194.834 72.5931 196.594 72.5931 198.808C72.5931 200.994 73.0864 202.754 74.0731 204.088C75.0597 205.394 76.4064 206.048 78.1131 206.048ZM91.5493 195.088C91.5493 192.314 91.8693 190.314 92.5093 189.088C93.176 187.861 94.0426 187.248 95.1093 187.248C95.7227 187.248 96.1893 187.474 96.5093 187.928C96.856 188.354 97.096 188.941 97.2293 189.688C97.3627 190.408 97.4293 191.221 97.4293 192.128C97.4293 193.274 97.4293 194.621 97.4293 196.168C97.456 197.688 97.4827 199.261 97.5093 200.888C97.5627 202.488 97.616 203.981 97.6693 205.368H97.8293C98.656 201.874 99.4827 199.008 100.309 196.768C101.163 194.528 102.029 192.874 102.909 191.808C103.816 190.714 104.723 190.168 105.629 190.168C106.616 190.168 107.549 190.714 108.429 191.808C109.336 192.874 110.216 194.501 111.069 196.688C111.949 198.874 112.843 201.634 113.749 204.968H113.909C113.989 202.674 114.043 200.261 114.069 197.728C114.096 195.194 114.109 192.874 114.109 190.768C114.109 189.248 114.363 188.128 114.869 187.408C115.376 186.688 116.083 186.328 116.989 186.328C118.136 186.328 118.963 186.928 119.469 188.128C120.003 189.301 120.269 190.888 120.269 192.888C120.269 194.354 120.189 195.928 120.029 197.608C119.896 199.261 119.696 200.861 119.429 202.408C119.163 203.954 118.843 205.301 118.469 206.448C117.909 208.154 117.283 209.448 116.589 210.328C115.923 211.208 115.043 211.648 113.949 211.648C112.963 211.648 111.976 211.074 110.989 209.928C110.029 208.754 109.123 207.008 108.269 204.688C107.416 202.368 106.629 199.474 105.909 196.008H105.749C105.056 199.314 104.229 202.088 103.269 204.328C102.336 206.541 101.336 208.208 100.269 209.328C99.2293 210.448 98.1893 211.008 97.1493 211.008C96.056 211.008 95.136 210.514 94.3893 209.528C93.6693 208.541 93.0693 207.021 92.5893 204.968C92.376 203.928 92.1893 202.821 92.0293 201.648C91.8693 200.448 91.7493 199.274 91.6693 198.128C91.5893 196.981 91.5493 195.968 91.5493 195.088ZM134.892 211.648C131.932 211.648 129.572 211.208 127.812 210.328C126.052 209.448 124.786 208.181 124.012 206.528C123.239 204.874 122.852 202.901 122.852 200.608C122.852 197.701 123.386 195.234 124.452 193.208C125.546 191.154 127.039 189.581 128.932 188.488C130.852 187.394 133.026 186.848 135.452 186.848C138.306 186.848 140.399 187.514 141.732 188.848C143.066 190.154 143.732 191.874 143.732 194.008C143.732 195.714 143.279 197.194 142.372 198.448C141.492 199.674 140.266 200.621 138.692 201.288C137.119 201.954 135.306 202.288 133.252 202.288C132.106 202.288 130.999 202.141 129.932 201.848C128.866 201.554 127.906 201.154 127.052 200.648L128.012 198.888C127.932 199.528 127.892 200.168 127.892 200.808C127.892 202.674 128.479 204.021 129.652 204.848C130.826 205.648 132.492 206.048 134.652 206.048C136.332 206.048 137.679 205.901 138.692 205.608C139.706 205.314 140.559 205.034 141.252 204.768C141.946 204.474 142.626 204.328 143.292 204.328C143.666 204.328 143.999 204.434 144.292 204.648C144.612 204.834 144.866 205.114 145.052 205.488C145.266 205.861 145.372 206.314 145.372 206.848C145.372 207.648 144.972 208.421 144.172 209.168C143.372 209.888 142.186 210.488 140.612 210.968C139.066 211.421 137.159 211.648 134.892 211.648ZM132.572 198.568C134.466 198.568 135.986 198.168 137.132 197.368C138.279 196.568 138.852 195.581 138.852 194.408C138.852 193.474 138.532 192.714 137.892 192.128C137.279 191.514 136.306 191.208 134.972 191.208C133.719 191.208 132.586 191.448 131.572 191.928C130.586 192.381 129.812 192.981 129.252 193.728C128.692 194.474 128.412 195.288 128.412 196.168C128.412 196.941 128.772 197.541 129.492 197.968C130.239 198.368 131.266 198.568 132.572 198.568ZM148.888 193.288C148.888 190.728 149.128 188.888 149.608 187.768C150.088 186.621 150.768 186.048 151.648 186.048C152.341 186.048 152.888 186.341 153.288 186.928C153.688 187.488 153.981 188.194 154.168 189.048C154.354 189.874 154.448 190.714 154.448 191.568L154.248 191.488C154.701 190.048 155.394 188.808 156.328 187.768C157.288 186.728 158.434 186.208 159.768 186.208C161.341 186.208 162.501 186.861 163.248 188.168C163.994 189.448 164.368 191.048 164.368 192.968C164.368 195.528 164.074 197.314 163.488 198.328C162.901 199.341 162.114 199.848 161.128 199.848C160.408 199.848 159.874 199.554 159.528 198.968C159.208 198.381 159.101 197.341 159.208 195.848C159.314 194.274 159.221 193.181 158.928 192.568C158.634 191.954 158.168 191.648 157.528 191.648C156.754 191.648 156.114 192.141 155.608 193.128C155.128 194.088 154.888 195.274 154.888 196.688C154.888 197.248 154.954 197.954 155.088 198.808C155.221 199.661 155.368 200.594 155.528 201.608C155.688 202.594 155.834 203.581 155.968 204.568C156.101 205.554 156.168 206.461 156.168 207.288C156.168 208.754 155.941 209.808 155.488 210.448C155.034 211.088 154.394 211.408 153.568 211.408C152.634 211.408 151.914 211.114 151.408 210.528C150.901 209.914 150.514 208.928 150.248 207.568C150.034 206.341 149.821 204.888 149.608 203.208C149.394 201.528 149.221 199.808 149.088 198.048C148.954 196.288 148.888 194.701 148.888 193.288ZM175.391 211.888C172.778 211.888 170.738 210.914 169.271 208.968C167.805 206.994 167.071 203.994 167.071 199.968C167.071 195.968 167.791 193.048 169.231 191.208C170.698 189.341 172.791 188.408 175.511 188.408C177.058 188.408 178.405 188.728 179.551 189.368C180.725 190.008 181.765 190.914 182.671 192.088L182.351 192.248C182.111 191.154 181.871 189.994 181.631 188.768C181.391 187.541 181.191 186.381 181.031 185.288C180.898 184.168 180.831 183.288 180.831 182.648C180.831 181.741 180.978 181.048 181.271 180.568C181.565 180.061 182.031 179.808 182.671 179.808C183.578 179.808 184.311 180.194 184.871 180.968C185.431 181.714 185.898 182.874 186.271 184.448C186.618 185.861 186.925 187.541 187.191 189.488C187.458 191.408 187.671 193.421 187.831 195.528C188.018 197.608 188.111 199.608 188.111 201.528C188.111 204.194 187.965 206.274 187.671 207.768C187.405 209.234 187.018 210.261 186.511 210.848C186.031 211.434 185.458 211.728 184.791 211.728C183.965 211.728 183.405 211.314 183.111 210.488C182.818 209.661 182.698 208.314 182.751 206.448H183.351C182.631 208.101 181.578 209.421 180.191 210.408C178.831 211.394 177.231 211.888 175.391 211.888ZM177.511 206.928C178.471 206.928 179.351 206.688 180.151 206.208C180.978 205.701 181.631 204.928 182.111 203.888C182.618 202.848 182.871 201.528 182.871 199.928C182.871 197.874 182.405 196.208 181.471 194.928C180.538 193.621 179.191 192.968 177.431 192.968C176.045 192.968 174.911 193.541 174.031 194.688C173.178 195.834 172.751 197.568 172.751 199.888C172.751 201.941 173.178 203.634 174.031 204.968C174.911 206.274 176.071 206.928 177.511 206.928ZM204.189 211.648C201.229 211.648 198.869 211.208 197.109 210.328C195.349 209.448 194.083 208.181 193.309 206.528C192.536 204.874 192.149 202.901 192.149 200.608C192.149 197.701 192.683 195.234 193.749 193.208C194.843 191.154 196.336 189.581 198.229 188.488C200.149 187.394 202.323 186.848 204.749 186.848C207.603 186.848 209.696 187.514 211.029 188.848C212.363 190.154 213.029 191.874 213.029 194.008C213.029 195.714 212.576 197.194 211.669 198.448C210.789 199.674 209.563 200.621 207.989 201.288C206.416 201.954 204.603 202.288 202.549 202.288C201.403 202.288 200.296 202.141 199.229 201.848C198.163 201.554 197.203 201.154 196.349 200.648L197.309 198.888C197.229 199.528 197.189 200.168 197.189 200.808C197.189 202.674 197.776 204.021 198.949 204.848C200.123 205.648 201.789 206.048 203.949 206.048C205.629 206.048 206.976 205.901 207.989 205.608C209.003 205.314 209.856 205.034 210.549 204.768C211.243 204.474 211.923 204.328 212.589 204.328C212.963 204.328 213.296 204.434 213.589 204.648C213.909 204.834 214.163 205.114 214.349 205.488C214.563 205.861 214.669 206.314 214.669 206.848C214.669 207.648 214.269 208.421 213.469 209.168C212.669 209.888 211.483 210.488 209.909 210.968C208.363 211.421 206.456 211.648 204.189 211.648ZM201.869 198.568C203.763 198.568 205.283 198.168 206.429 197.368C207.576 196.568 208.149 195.581 208.149 194.408C208.149 193.474 207.829 192.714 207.189 192.128C206.576 191.514 205.603 191.208 204.269 191.208C203.016 191.208 201.883 191.448 200.869 191.928C199.883 192.381 199.109 192.981 198.549 193.728C197.989 194.474 197.709 195.288 197.709 196.168C197.709 196.941 198.069 197.541 198.789 197.968C199.536 198.368 200.563 198.568 201.869 198.568ZM219.305 211.688C218.558 211.688 217.918 211.421 217.385 210.888C216.851 210.328 216.585 209.634 216.585 208.808C216.585 207.848 216.971 206.808 217.745 205.688C218.518 204.541 219.638 203.421 221.105 202.328C222.598 201.234 224.371 200.274 226.425 199.448V199.288C223.038 197.848 220.545 196.234 218.945 194.448C217.371 192.661 216.585 191.021 216.585 189.528C216.585 188.914 216.718 188.394 216.985 187.968C217.278 187.541 217.651 187.208 218.105 186.968C218.585 186.728 219.078 186.608 219.585 186.608C220.678 186.608 221.731 187.021 222.745 187.848C223.785 188.648 224.798 189.808 225.785 191.328C226.771 192.821 227.731 194.621 228.665 196.728H228.825C230.185 193.074 231.598 190.421 233.065 188.768C234.558 187.088 236.105 186.248 237.705 186.248C238.478 186.248 239.078 186.501 239.505 187.008C239.931 187.488 240.145 188.101 240.145 188.848C240.145 190.608 239.385 192.328 237.865 194.008C236.345 195.688 234.038 197.274 230.945 198.768V198.968C233.798 200.541 235.918 202.181 237.305 203.888C238.718 205.568 239.425 207.048 239.425 208.328C239.425 209.128 239.185 209.768 238.705 210.248C238.251 210.728 237.705 210.968 237.065 210.968C235.945 210.968 234.905 210.554 233.945 209.728C232.985 208.901 232.078 207.754 231.225 206.288C230.398 204.794 229.611 203.088 228.865 201.168H228.705C227.718 203.594 226.691 205.594 225.625 207.168C224.585 208.714 223.531 209.861 222.465 210.608C221.398 211.328 220.345 211.688 219.305 211.688Z" fill="black"/>
<path d="M43.0884 23.8277C41.4217 14.3277 37.5884 -1.47222 33.5884 1.32778C29.5884 4.12778 37.5884 17.3277 43.0884 23.8277Z" fill="black"/>
<path d="M32.5884 28.3278C26.9217 20.8278 14.6884 6.92777 11.0884 11.3278C7.4884 15.7278 23.9217 24.4944 32.5884 28.3278Z" fill="black"/>
<path d="M30.0885 39.8278C19.7551 35.4944 -0.511549 28.4278 1.08845 34.8278C2.68845 41.2278 21.0885 40.8278 30.0885 39.8278Z" fill="black"/>
<path d="M43.0884 23.8277C41.4217 14.3277 37.5884 -1.47222 33.5884 1.32778C29.5884 4.12778 37.5884 17.3277 43.0884 23.8277Z" stroke="black" stroke-width="2"/>
<path d="M32.5884 28.3278C26.9217 20.8278 14.6884 6.92777 11.0884 11.3278C7.4884 15.7278 23.9217 24.4944 32.5884 28.3278Z" stroke="black" stroke-width="2"/>
<path d="M30.0885 39.8278C19.7551 35.4944 -0.511549 28.4278 1.08845 34.8278C2.68845 41.2278 21.0885 40.8278 30.0885 39.8278Z" stroke="black" stroke-width="2"/>
<path d="M239.588 179.328C240.088 173.828 241.088 165.828 244.588 166.828C247.897 167.773 243.088 175.328 239.588 179.328Z" fill="black"/>
<path d="M246.088 184.828C248.588 179.328 255.188 170.728 257.588 174.328C259.988 177.928 251.088 183.328 246.088 184.828Z" fill="black"/>
<path d="M249.588 190.828C254.088 187.828 263.788 184.628 264.588 187.828C265.388 191.028 255.088 191.328 249.588 190.828Z" fill="black"/>
<path d="M239.588 179.328C240.088 173.828 241.088 165.828 244.588 166.828C247.897 167.773 243.088 175.328 239.588 179.328Z" stroke="black" stroke-width="2"/>
<path d="M246.088 184.828C248.588 179.328 255.188 170.728 257.588 174.328C259.988 177.928 251.088 183.328 246.088 184.828Z" stroke="black" stroke-width="2"/>
<path d="M249.588 190.828C254.088 187.828 263.788 184.628 264.588 187.828C265.388 191.028 255.088 191.328 249.588 190.828Z" stroke="black" stroke-width="2"/>
</svg>
